<svg width="635" height="621" viewBox="0 0 635 621" fill="none" xmlns="http://www.w3.org/2000/svg">
<g style="mix-blend-mode:screen" opacity="0.2">
<path fill-rule="evenodd" clip-rule="evenodd" d="M76.7601 58.9933C14.6817 78.0845 -9.59705 115.978 4.41749 181.447C19.7151 253.087 40.046 324.052 63.3378 393.764C69.7191 412.944 80.7329 428.765 94.5336 440.625C142.219 491.947 192.302 541.532 245.033 587.668C296.058 632.311 341.753 630.672 389.719 587.668C442.479 541.597 492.59 491.9 540.3 440.538C554.063 428.688 565.049 412.898 571.414 393.767C594.607 324.152 614.938 253.09 630.236 181.547C644.25 116.077 619.972 78.1843 557.893 59.0932C487.573 36.4794 415.223 18.3036 342.661 3.16408C334.367 1.20056 325.678 0.194932 316.736 0.26949C308.198 0.294233 299.901 1.30218 291.968 3.18629C219.447 18.3207 147.138 36.4877 76.7601 58.9933Z" fill="url(#paint0_linear_552_438)"/>
</g>
<defs>
<linearGradient id="paint0_linear_552_438" x1="58.3043" y1="443.134" x2="576.447" y2="443.134" gradientUnits="userSpaceOnUse">
<stop stop-color="white"/>
<stop offset="1" stop-color="#3C92F9"/>
</linearGradient>
</defs>
</svg>
