<svg width="365" height="357" viewBox="0 0 365 357" fill="none" xmlns="http://www.w3.org/2000/svg">
<g style="mix-blend-mode:screen" opacity="0.4">
<path d="M320.483 34.0764C356.135 45.0404 370.078 66.8023 362.029 104.401C353.244 145.488 341.568 186.299 328.248 226.279C317.876 257.454 286.135 273.18 257.229 265.594C229.456 258.34 212.679 231.871 215.796 200.198C218.743 170.406 219.14 154.182 212.338 142.055C204.97 130.15 190.46 122.397 162.46 109.938C132.817 96.7595 117.797 69.2941 125.222 42.161C132.93 13.865 162.687 -5.12816 195.561 1.68281C237.674 10.4319 279.674 20.9529 320.483 34.0764Z" fill="url(#paint0_linear_552_443)"/>
<path d="M2.62401 104.344C-5.42448 66.745 8.51869 44.9831 44.1701 34.0191C85.0361 20.9509 127.036 10.4299 169.149 1.68086C201.966 -5.13011 231.78 13.8631 239.488 42.159C246.913 69.2922 231.836 96.7575 202.249 109.936C174.25 122.396 159.683 130.148 152.371 142.053C145.57 154.18 145.967 170.405 148.914 200.196C152.031 231.869 135.254 258.338 107.481 265.592C78.518 273.178 46.8341 257.452 36.4617 226.277C23.0853 186.241 11.4093 145.486 2.62401 104.344Z" fill="url(#paint1_linear_552_443)"/>
<path d="M140.809 337.635C170.112 363.273 196.355 362.332 223.901 337.635C255.925 309.671 286.248 279.382 315.042 248.096C337.487 223.731 335.56 189.067 314.362 168.358C294.014 148.479 262.16 147.537 235.69 165.977C210.638 183.475 196.468 191.891 182.298 192.168C168.128 191.836 153.958 183.419 129.019 165.977C102.55 147.482 70.6394 148.479 50.3481 168.358C29.15 189.067 27.2229 223.731 49.668 248.096C78.4612 279.382 108.785 309.616 140.809 337.635Z" fill="url(#paint2_linear_552_443)"/>
</g>
<defs>
<linearGradient id="paint0_linear_552_443" x1="123.297" y1="133.886" x2="364.286" y2="133.886" gradientUnits="userSpaceOnUse">
<stop stop-color="white"/>
<stop offset="1" stop-color="#3C92F9"/>
</linearGradient>
<linearGradient id="paint1_linear_552_443" x1="0.36751" y1="133.884" x2="241.409" y2="133.884" gradientUnits="userSpaceOnUse">
<stop stop-color="white"/>
<stop offset="1" stop-color="#3C92F9"/>
</linearGradient>
<linearGradient id="paint2_linear_552_443" x1="33.571" y1="254.63" x2="331.139" y2="254.63" gradientUnits="userSpaceOnUse">
<stop stop-color="white"/>
<stop offset="1" stop-color="#3C92F9"/>
</linearGradient>
</defs>
</svg>
