<svg width="1038" height="1017" viewBox="0 0 1038 1017" fill="none" xmlns="http://www.w3.org/2000/svg">
<g style="mix-blend-mode:screen" opacity="0.2" filter="url(#filter0_f_552_433)">
<path fill-rule="evenodd" clip-rule="evenodd" d="M133.492 105.178C33.9266 135.798 -5.01301 196.573 17.4643 301.576C41.9995 416.477 74.6075 530.295 111.964 642.103C122.199 672.865 139.864 698.241 161.998 717.261C238.479 799.574 318.805 879.102 403.378 953.098C485.215 1024.7 558.503 1022.07 635.433 953.098C720.054 879.206 800.424 799.499 876.944 717.122C899.018 698.117 916.639 672.792 926.847 642.109C964.046 530.455 996.654 416.483 1021.19 301.737C1043.67 196.733 1004.73 135.958 905.161 105.338C792.377 69.0689 676.338 39.9173 559.958 15.6356C546.658 12.4872 532.726 10.8745 518.387 10.9934C504.69 11.0325 491.38 12.6493 478.654 15.6719C362.341 39.9453 246.368 69.0826 133.492 105.178Z" fill="url(#paint0_linear_552_433)"/>
</g>
<defs>
<filter id="filter0_f_552_433" x="0.989795" y="0.687304" width="1036.67" height="1015.43" filterUnits="userSpaceOnUse" color-interpolation-filters="sRGB">
<feFlood flood-opacity="0" result="BackgroundImageFix"/>
<feBlend mode="normal" in="SourceGraphic" in2="BackgroundImageFix" result="shape"/>
<feGaussianBlur stdDeviation="5.15" result="effect1_foregroundBlur_552_433"/>
</filter>
<linearGradient id="paint0_linear_552_433" x1="103.891" y1="721.287" x2="934.92" y2="721.287" gradientUnits="userSpaceOnUse">
<stop stop-color="white"/>
<stop offset="1" stop-color="#3C92F9"/>
</linearGradient>
</defs>
</svg>
