<svg width="45" height="44" viewBox="0 0 45 44" fill="none" xmlns="http://www.w3.org/2000/svg">
<path d="M39.5349 4.1728C43.9386 5.52706 45.6608 8.21508 44.6667 12.8593C43.5815 17.9343 42.1393 22.9752 40.4941 27.9135C39.2129 31.7643 35.2923 33.7068 31.7218 32.7697C28.2913 31.8737 26.2189 28.6043 26.604 24.692C26.9681 21.0122 27.0171 19.0082 26.1769 17.5103C25.2668 16.0397 23.4745 15.0822 20.016 13.5432C16.3545 11.9154 14.4992 8.52287 15.4164 5.1714C16.3685 1.67629 20.044 -0.669735 24.1046 0.171552C29.3064 1.25223 34.4942 2.55178 39.5349 4.1728Z" fill="url(#paint0_linear_552_458)"/>
<path d="M0.273093 12.8524C-0.721054 8.20824 1.0012 5.52022 5.40485 4.16596C10.4526 2.55178 15.6404 1.25223 20.8421 0.171552C24.8957 -0.669735 28.5783 1.67629 29.5304 5.1714C30.4475 8.52287 28.5853 11.9154 24.9307 13.5432C21.4722 15.0822 19.673 16.0397 18.7698 17.5103C17.9297 19.0082 17.9787 21.0122 18.3428 24.692C18.7278 28.6043 16.6555 31.8737 13.225 32.7697C9.64747 33.7068 5.7339 31.7643 4.45271 27.9135C2.80047 22.9684 1.35825 17.9343 0.273093 12.8524Z" fill="url(#paint1_linear_552_458)"/>
<g style="mix-blend-mode:overlay">
<path d="M19.68 12.6409C22.8042 12.6409 25.3368 10.1666 25.3368 7.11439C25.3368 4.06219 22.8042 1.58789 19.68 1.58789C16.5558 1.58789 14.0231 4.06219 14.0231 7.11439C14.0231 10.1666 16.5558 12.6409 19.68 12.6409Z" fill="black"/>
</g>
<g style="mix-blend-mode:overlay">
<path d="M34.4732 29.8841C37.5973 29.8841 40.13 27.4098 40.13 24.3576C40.13 21.3054 37.5973 18.8311 34.4732 18.8311C31.349 18.8311 28.8163 21.3054 28.8163 24.3576C28.8163 27.4098 31.349 29.8841 34.4732 29.8841Z" fill="black"/>
</g>
<path d="M17.3416 41.6681C20.9612 44.8349 24.2026 44.7186 27.6051 41.6681C31.5607 38.214 35.3063 34.4727 38.8628 30.6082C41.6352 27.5988 41.3972 23.3171 38.7788 20.759C36.2654 18.3036 32.3308 18.1873 29.0614 20.4649C25.9669 22.6263 24.2166 23.6659 22.4664 23.7001C20.7161 23.6591 18.9659 22.6194 15.8854 20.4649C12.6159 18.1804 8.67436 18.3036 6.16799 20.759C3.5496 23.3171 3.31156 27.5988 6.08397 30.6082C9.6405 34.4727 13.3861 38.2072 17.3416 41.6681Z" fill="url(#paint2_linear_552_458)"/>
<g style="mix-blend-mode:overlay">
<path d="M13.057 33.2141C16.1812 33.2141 18.7138 30.7398 18.7138 27.6876C18.7138 24.6354 16.1812 22.1611 13.057 22.1611C9.93281 22.1611 7.40016 24.6354 7.40016 27.6876C7.40016 30.7398 9.93281 33.2141 13.057 33.2141Z" fill="black"/>
</g>
<path d="M0.273093 12.8524C-0.721054 8.20824 1.0012 5.52022 5.40485 4.16596C10.4526 2.55178 15.6404 1.25223 20.8421 0.171552C24.8957 -0.669735 28.5783 1.67629 29.5304 5.1714C30.4475 8.52287 28.5853 11.9154 24.9307 13.5432C21.4722 15.0822 19.673 16.0397 18.7698 17.5103C17.9297 19.0082 17.9787 21.0122 18.3428 24.692C18.7278 28.6043 16.6555 31.8737 13.225 32.7697C9.64747 33.7068 5.7339 31.7643 4.45271 27.9135C2.80047 22.9684 1.35825 17.9343 0.273093 12.8524Z" fill="url(#paint3_linear_552_458)"/>
<path d="M39.5349 4.1728C43.9386 5.52706 45.6608 8.21508 44.6667 12.8593C43.5815 17.9343 42.1393 22.9752 40.4941 27.9135C39.2129 31.7643 35.2923 33.7068 31.7218 32.7697C28.2913 31.8737 26.2189 28.6043 26.604 24.692C26.9681 21.0122 27.0171 19.0082 26.1769 17.5103C25.2668 16.0397 23.4745 15.0822 20.016 13.5432C16.3545 11.9154 14.4992 8.52287 15.4164 5.1714C16.3685 1.67629 20.044 -0.669735 24.1046 0.171552C29.3064 1.25223 34.4942 2.55178 39.5349 4.1728Z" fill="url(#paint4_linear_552_458)"/>
<defs>
<linearGradient id="paint0_linear_552_458" x1="15.1783" y1="16.498" x2="44.9397" y2="16.498" gradientUnits="userSpaceOnUse">
<stop stop-color="#61EFFF"/>
<stop offset="1" stop-color="#0033AD"/>
</linearGradient>
<linearGradient id="paint1_linear_552_458" x1="2.73746" y1="29.1857" x2="20.4802" y2="-2.26594" gradientUnits="userSpaceOnUse">
<stop stop-color="#61EFFF"/>
<stop offset="1" stop-color="#0033AD"/>
</linearGradient>
<linearGradient id="paint2_linear_552_458" x1="4.09568" y1="31.4153" x2="40.8511" y2="31.4153" gradientUnits="userSpaceOnUse">
<stop stop-color="#0033AD"/>
<stop offset="1" stop-color="#61EFFF"/>
</linearGradient>
<linearGradient id="paint3_linear_552_458" x1="2.73746" y1="29.1857" x2="20.4802" y2="-2.26594" gradientUnits="userSpaceOnUse">
<stop stop-color="#61EFFF"/>
<stop offset="1" stop-color="#0033AD"/>
</linearGradient>
<linearGradient id="paint4_linear_552_458" x1="15.1783" y1="16.498" x2="44.9397" y2="16.498" gradientUnits="userSpaceOnUse">
<stop stop-color="#61EFFF"/>
<stop offset="1" stop-color="#0033AD"/>
</linearGradient>
</defs>
</svg>
