<svg width="178" height="44" viewBox="0 0 178 44" fill="none" xmlns="http://www.w3.org/2000/svg">
<g clip-path="url(#clip0_1247_88)">
<mask id="mask0_1247_88" style="mask-type:luminance" maskUnits="userSpaceOnUse" x="0" y="0" width="178" height="44">
<path d="M177.354 0H0V44H177.354V0Z" fill="white"/>
</mask>
<g mask="url(#mask0_1247_88)">
<g style="mix-blend-mode:screen">
<path d="M38.2327 4.26455C42.4905 5.60486 44.1557 8.26517 43.1945 12.8615C42.1453 17.8842 40.7508 22.8732 39.16 27.7605C37.9213 31.5716 34.1305 33.4941 30.6782 32.5667C27.3613 31.6799 25.3576 28.4442 25.7299 24.5722C26.0819 20.9304 26.1293 18.947 25.317 17.4646C24.437 16.0092 22.7041 15.0615 19.3601 13.5384C15.8197 11.9273 14.0259 8.56978 14.9127 5.25286C15.8333 1.79378 19.3871 -0.528066 23.3065 0.304549C28.3361 1.37409 33.3521 2.66024 38.2259 4.26455H38.2327Z" fill="url(#paint0_linear_1247_88)"/>
<path d="M38.2327 4.26455C42.4905 5.60486 44.1557 8.26517 43.1945 12.8615C42.1453 17.8842 40.7508 22.8732 39.16 27.7605C37.9213 31.5716 34.1305 33.4941 30.6782 32.5667C27.3613 31.6799 25.3576 28.4442 25.7299 24.5722C26.0819 20.9304 26.1293 18.947 25.317 17.4646C24.437 16.0092 22.7041 15.0615 19.3601 13.5384C15.8197 11.9273 14.0259 8.56978 14.9127 5.25286C15.8333 1.79378 19.3871 -0.528066 23.3065 0.304549C28.3361 1.37409 33.3521 2.66024 38.2259 4.26455H38.2327Z" fill="url(#paint1_linear_1247_88)"/>
<path d="M0.270887 12.8547C-0.690344 8.2584 0.974887 5.59809 5.23273 4.25778C10.1066 2.66024 15.1226 1.37409 20.1521 0.304549C24.0715 -0.528066 27.6321 1.79378 28.5527 5.25286C29.4395 8.56978 27.6389 11.9273 24.1053 13.5384C20.7613 15.0615 19.0217 16.0092 18.1484 17.4646C17.3361 18.947 17.3835 20.9304 17.7355 24.5722C18.1078 28.4442 16.1041 31.6799 12.7872 32.5667C9.32812 33.4941 5.54412 31.5716 4.30535 27.7605C2.71458 22.8664 1.32012 17.8842 0.270887 12.8547Z" fill="url(#paint2_linear_1247_88)"/>
<g style="mix-blend-mode:overlay">
<path d="M19.0284 12.6446C22.0491 12.6446 24.4979 10.1958 24.4979 7.1751C24.4979 4.15436 22.0491 1.70557 19.0284 1.70557C16.0076 1.70557 13.5588 4.15436 13.5588 7.1751C13.5588 10.1958 16.0076 12.6446 19.0284 12.6446Z" fill="black"/>
</g>
<g style="mix-blend-mode:overlay">
<path d="M33.3387 29.7101C36.3594 29.7101 38.8082 27.2613 38.8082 24.2405C38.8082 21.2198 36.3594 18.771 33.3387 18.771C30.3179 18.771 27.8691 21.2198 27.8691 24.2405C27.8691 27.2613 30.3179 29.7101 33.3387 29.7101Z" fill="black"/>
</g>
<path d="M16.7675 41.3736C20.2672 44.5078 23.4013 44.3927 26.6912 41.3736C30.5158 37.9551 34.1373 34.2524 37.5761 30.4278C40.2567 27.4493 40.0265 23.2118 37.4948 20.6801C35.0647 18.2499 31.2604 18.1348 28.0992 20.389C25.1072 22.5281 23.4148 23.557 21.7225 23.5908C20.0302 23.5502 18.3379 22.5213 15.3595 20.389C12.1982 18.1281 8.38715 18.2499 5.96377 20.6801C3.43208 23.2118 3.20192 27.4493 5.88254 30.4278C9.32131 34.2524 12.9428 37.9484 16.7675 41.3736Z" fill="#110000"/>
<path d="M16.7675 41.3736C20.2672 44.5078 23.4013 44.3927 26.6912 41.3736C30.5158 37.9551 34.1373 34.2524 37.5761 30.4278C40.2567 27.4493 40.0265 23.2118 37.4948 20.6801C35.0647 18.2499 31.2604 18.1348 28.0992 20.389C25.1072 22.5281 23.4148 23.557 21.7225 23.5908C20.0302 23.5502 18.3379 22.5213 15.3595 20.389C12.1982 18.1281 8.38715 18.2499 5.96377 20.6801C3.43208 23.2118 3.20192 27.4493 5.88254 30.4278C9.32131 34.2524 12.9428 37.9484 16.7675 41.3736Z" fill="url(#paint3_linear_1247_88)"/>
<path d="M42.6124 15.4947L25.5201 17.8775C25.4591 17.7353 25.3914 17.5932 25.317 17.4578C24.437 16.0024 22.7041 15.0547 19.3601 13.5316C15.8197 11.9206 14.0259 8.56303 14.9127 5.24611C15.8333 1.7938 19.3871 -0.528048 23.3065 0.304567C28.3361 1.37411 33.3521 2.66026 38.2259 4.26457C42.4837 5.60487 44.149 8.26518 43.1877 12.8615C42.8357 14.5403 43.0253 13.8295 42.6056 15.4947H42.6124Z" fill="url(#paint4_linear_1247_88)"/>
<g style="mix-blend-mode:overlay">
<path d="M12.6314 33.0069C15.6521 33.0069 18.1009 30.5582 18.1009 27.5374C18.1009 24.5167 15.6521 22.0679 12.6314 22.0679C9.61066 22.0679 7.16187 24.5167 7.16187 27.5374C7.16187 30.5582 9.61066 33.0069 12.6314 33.0069Z" fill="black"/>
</g>
<path fill-rule="evenodd" clip-rule="evenodd" d="M21.7293 14.6621C19.8813 15.603 18.7847 16.395 18.1484 17.4578C17.3361 18.9403 17.3835 20.9236 17.7355 24.5655C18.1078 28.4375 16.1041 31.6732 12.7872 32.56C9.3281 33.4873 5.5441 31.5649 4.30533 27.7538C2.89056 23.4012 1.63148 18.9741 0.629639 14.5132H21.7293V14.6553V14.6621Z" fill="url(#paint5_linear_1247_88)"/>
</g>
<path d="M56.9564 33.2911L67.8413 16.5575L77.6702 33.2911H81.549L68.0038 10.208L52.9761 33.2911H56.9564Z" fill="white"/>
<path d="M110.075 33.2574H85.5159V10.2759H110.075L106.392 13.5996H88.8666V20.1116H97.2199L99.8802 23.4353H88.8666V29.9473H106.981L110.068 33.271L110.075 33.2574Z" fill="white"/>
<path d="M118.482 32.3702C119.971 32.9388 121.542 33.2232 123.18 33.2232H136.827V17.7081H133.997L130.186 21.0588H133.476V29.8724H123.187C121.934 29.8724 120.763 29.6625 119.667 29.2496C118.59 28.8096 117.636 28.2275 116.803 27.5099C115.991 26.7653 115.348 25.8988 114.86 24.9105C114.4 23.9222 114.17 22.873 114.17 21.7561C114.17 20.6392 114.4 19.5831 114.86 18.6016C115.341 17.593 115.991 16.7265 116.803 16.0022C117.636 15.2576 118.59 14.6755 119.667 14.2625C120.763 13.8225 121.934 13.6059 123.187 13.6059H133.347L136.833 10.2822H123.187C121.542 10.2822 119.978 10.5665 118.489 11.1352C116.999 11.6835 115.673 12.4958 114.508 13.5653C113.324 14.6619 112.417 15.9075 111.78 17.3155C111.144 18.7167 110.826 20.1992 110.826 21.7561C110.826 23.313 111.144 24.7887 111.78 26.1967C112.417 27.5776 113.324 28.8164 114.508 29.913C115.673 30.9893 116.999 31.8084 118.489 32.377L118.482 32.3702Z" fill="white"/>
<path d="M170.185 20.0437C171.153 20.0437 172.047 20.2197 172.88 20.5717C173.733 20.9033 174.477 21.3637 175.113 21.9526C175.75 22.5415 176.244 23.2455 176.589 24.0578C176.961 24.8498 177.151 25.6892 177.151 26.5895V26.7858C177.151 27.6861 176.961 28.5255 176.589 29.3175C176.237 30.1095 175.743 30.8 175.113 31.3889C174.477 31.9778 173.733 32.4517 172.88 32.8037C172.047 33.1557 171.147 33.3317 170.185 33.3317H154.535L157.953 29.9809H170.185C170.686 29.9809 171.16 29.9064 171.6 29.7507C172.04 29.5747 172.419 29.3446 172.751 29.0603C173.083 28.7557 173.333 28.4104 173.509 28.0381C173.705 27.6455 173.807 27.2258 173.807 26.7858V26.5895C173.807 26.1495 173.705 25.7366 173.509 25.3372C173.333 24.9446 173.083 24.6061 172.751 24.315C172.419 24.0104 172.04 23.7803 171.6 23.6246C171.16 23.4486 170.693 23.3606 170.185 23.3606H159.896C158.935 23.3606 158.021 23.1981 157.168 22.8664C156.336 22.5144 155.598 22.0474 154.968 21.4517C154.332 20.8627 153.831 20.1723 153.459 19.3803C153.107 18.5883 152.931 17.7489 152.931 16.8486C152.931 15.9483 153.107 15.1089 153.459 14.3169C153.831 13.5046 154.332 12.8074 154.968 12.2117C155.605 11.6227 156.336 11.1624 157.168 10.8307C158.021 10.4787 158.935 10.3027 159.896 10.3027H175.086L171.634 13.6535H159.896C159.395 13.6535 158.921 13.7415 158.481 13.9175C158.041 14.0732 157.662 14.2898 157.331 14.5741C156.999 14.8584 156.742 15.1969 156.539 15.5963C156.363 15.9889 156.275 16.4086 156.275 16.8486C156.275 17.2886 156.363 17.7015 156.539 18.1009C156.735 18.4732 156.999 18.8117 157.331 19.123C157.662 19.4073 158.041 19.6375 158.481 19.8135C158.921 19.9692 159.389 20.0437 159.896 20.0437H170.185Z" fill="white"/>
<path d="M147.285 33.3586H143.934V10.3433L147.285 13.5654V33.3586Z" fill="white"/>
</g>
</g>
<defs>
<linearGradient id="paint0_linear_1247_88" x1="54.0253" y1="39.8504" x2="15.7453" y2="-2.51145" gradientUnits="userSpaceOnUse">
<stop stop-color="#919191"/>
<stop offset="0.5" stop-color="#C9C9C9"/>
<stop offset="1" stop-color="white"/>
</linearGradient>
<linearGradient id="paint1_linear_1247_88" x1="48.5084" y1="65.1132" x2="14.7841" y2="-32.8376" gradientUnits="userSpaceOnUse">
<stop stop-color="#919191"/>
<stop offset="0.5" stop-color="#C9C9C9"/>
<stop offset="0.94" stop-color="white"/>
</linearGradient>
<linearGradient id="paint2_linear_1247_88" x1="9.38227" y1="38.0633" x2="16.6524" y2="-4.59637" gradientUnits="userSpaceOnUse">
<stop stop-color="white"/>
<stop offset="0.49" stop-color="#C9C9C9"/>
<stop offset="1" stop-color="#919191"/>
</linearGradient>
<linearGradient id="paint3_linear_1247_88" x1="0.670231" y1="30.421" x2="43.8308" y2="31.7207" gradientUnits="userSpaceOnUse">
<stop stop-color="#919191"/>
<stop offset="0.5" stop-color="#C9C9C9"/>
<stop offset="1" stop-color="white"/>
</linearGradient>
<linearGradient id="paint4_linear_1247_88" x1="34.0831" y1="38.0633" x2="26.8062" y2="-4.59636" gradientUnits="userSpaceOnUse">
<stop stop-color="#919191"/>
<stop offset="0.5" stop-color="#C9C9C9"/>
<stop offset="0.94" stop-color="white"/>
</linearGradient>
<linearGradient id="paint5_linear_1247_88" x1="7.23641" y1="37.7046" x2="14.5133" y2="-4.96189" gradientUnits="userSpaceOnUse">
<stop stop-color="white"/>
<stop offset="0.5" stop-color="#C9C9C9"/>
<stop offset="1" stop-color="#919191"/>
</linearGradient>
<clipPath id="clip0_1247_88">
<rect width="177.354" height="44" fill="white"/>
</clipPath>
</defs>
</svg>
