<svg width="52" height="52" viewBox="0 0 52 52" fill="none" xmlns="http://www.w3.org/2000/svg">
<path d="M17.098 41.8086C17.9186 42.2717 18.7789 42.6728 19.6725 43.0054C20.5137 43.3186 21.1163 44.0954 21.1163 44.9931V49.4419C21.1163 49.7501 21.3662 50 21.6744 50H30.3256C30.6338 50 30.8837 49.7501 30.8837 49.4419V44.9931C30.8837 44.0954 31.4863 43.3186 32.3275 43.0054C32.7421 42.8511 33.1496 42.682 33.5493 42.4988C34.3655 42.1247 35.3413 42.2479 35.9762 42.8828L39.1226 46.0292C39.3406 46.2472 39.6939 46.2472 39.9119 46.0292L46.0292 39.9119C46.2472 39.694 46.2472 39.3406 46.0292 39.1226L42.8828 35.9762C42.2479 35.3413 42.1247 34.3655 42.4988 33.5493C42.682 33.1496 42.8511 32.7422 43.0054 32.3275C43.3186 31.4863 44.0954 30.8837 44.9931 30.8837H49.4419C49.7501 30.8837 50 30.6338 50 30.3256V21.6744C50 21.3662 49.7501 21.1163 49.4419 21.1163H44.9931C44.0954 21.1163 43.3186 20.5137 43.0054 19.6725C42.8511 19.2579 42.682 18.8504 42.4988 18.4507C42.1247 17.6345 42.2479 16.6587 42.8828 16.0238L46.0292 12.8774C46.2472 12.6594 46.2472 12.306 46.0292 12.0881L39.9119 5.97079C39.694 5.75282 39.3406 5.75282 39.1226 5.97079L35.9762 9.1172C35.3413 9.75212 34.3655 9.87528 33.5493 9.50117C33.1496 9.31801 32.7422 9.14894 32.3275 8.99459C31.4863 8.68144 30.8837 7.90457 30.8837 7.00692V2.55814C30.8837 2.24989 30.6338 2 30.3256 2H21.6744C21.3662 2 21.1163 2.24989 21.1163 2.55814V7.00692C21.1163 7.90457 20.5137 8.68144 19.6725 8.99459C19.2579 9.14894 18.8504 9.31801 18.4507 9.50118C17.6345 9.87528 16.6587 9.75212 16.0238 9.1172L12.8774 5.9708C12.6594 5.75284 12.3061 5.75284 12.0881 5.9708L5.97079 12.0881C5.75282 12.3061 5.75282 12.6595 5.97079 12.8774L9.11719 16.0238C9.75211 16.6587 9.87527 17.6345 9.50117 18.4507C9.318 18.8504 9.14893 19.2579 8.99459 19.6725C8.68144 20.5137 7.90457 21.1163 7.00692 21.1163H2.55814C2.24989 21.1163 2 21.3662 2 21.6744V30.3256C2 30.6338 2.24989 30.8837 2.55814 30.8837H8.52547" stroke="#3C92F9" stroke-width="4" stroke-linecap="round"/>
<circle cx="26" cy="26" r="8" stroke="#323E59" stroke-width="4" stroke-linecap="round"/>
<path d="M2 36L10.6511 36.0465" stroke="#3C92F9" stroke-width="4" stroke-linecap="round"/>
<path d="M9 41H16" stroke="#3C92F9" stroke-width="4" stroke-linecap="round"/>
</svg>
