<svg width="116" height="116" viewBox="0 0 116 116" fill="none" xmlns="http://www.w3.org/2000/svg">
<g filter="url(#filter0_d_1247_474)">
<path d="M28 47C28 30.4315 41.4315 17 58 17C74.5685 17 88 30.4315 88 47C88 63.5685 74.5685 77 58 77C41.4315 77 28 63.5685 28 47Z" fill="white" shape-rendering="crispEdges"/>
<path d="M28.6818 47C28.6818 30.808 41.808 17.6818 58 17.6818C74.192 17.6818 87.3182 30.808 87.3182 47C87.3182 63.192 74.192 76.3182 58 76.3182C41.808 76.3182 28.6818 63.192 28.6818 47Z" stroke="url(#paint0_linear_1247_474)" stroke-width="1.36364" shape-rendering="crispEdges"/>
<mask id="path-3-inside-1_1247_474" fill="white">
<path fill-rule="evenodd" clip-rule="evenodd" d="M65.8202 35.7965C66.6698 36.1234 66.6871 37.26 65.9932 37.8492C63.4013 40.0504 61.7565 43.3331 61.7565 47C61.7565 50.6669 63.4013 53.9496 65.9932 56.1508C66.6871 56.74 66.6698 57.8766 65.8202 58.2035C64.483 58.718 63.0306 59 61.5122 59C54.8848 59 49.5122 53.6274 49.5122 47C49.5122 40.3726 54.8848 35 61.5122 35C63.0306 35 64.483 35.282 65.8202 35.7965Z"/>
</mask>
<path d="M65.8202 58.2035L66.2511 59.3235L65.8202 58.2035ZM65.9932 37.8492L65.2165 36.9345L65.9932 37.8492ZM62.9565 47C62.9565 43.7001 64.435 40.7468 66.77 38.7639L65.2165 36.9345C62.3675 39.3539 60.5565 42.9661 60.5565 47H62.9565ZM66.77 55.2361C64.435 53.2532 62.9565 50.2999 62.9565 47H60.5565C60.5565 51.0339 62.3675 54.6461 65.2165 57.0655L66.77 55.2361ZM65.3892 57.0836C64.1875 57.546 62.8809 57.8 61.5122 57.8V60.2C63.1802 60.2 64.7786 59.89 66.2511 59.3235L65.3892 57.0836ZM61.5122 57.8C55.5475 57.8 50.7122 52.9647 50.7122 47H48.3122C48.3122 54.2902 54.222 60.2 61.5122 60.2V57.8ZM50.7122 47C50.7122 41.0353 55.5475 36.2 61.5122 36.2V33.8C54.222 33.8 48.3122 39.7098 48.3122 47H50.7122ZM61.5122 36.2C62.8809 36.2 64.1875 36.454 65.3892 36.9164L66.2511 34.6765C64.7786 34.11 63.1802 33.8 61.5122 33.8V36.2ZM65.2165 57.0655C65.2425 57.0875 65.2617 57.1146 65.274 57.1435C65.287 57.1741 65.2881 57.1969 65.2876 57.204C65.2873 57.2103 65.2873 57.1876 65.3117 57.1518C65.3238 57.134 65.3392 57.1173 65.3563 57.1039C65.3734 57.0904 65.3863 57.0847 65.3892 57.0836L66.2511 59.3235C67.1724 58.969 67.6354 58.1507 67.6834 57.3471C67.7295 56.5748 67.4068 55.7769 66.77 55.2361L65.2165 57.0655ZM66.77 38.7639C67.4069 38.2231 67.7295 37.4252 67.6834 36.6529C67.6354 35.8493 67.1724 35.031 66.2511 34.6765L65.3892 36.9164C65.3863 36.9153 65.3734 36.9096 65.3563 36.8961C65.3392 36.8827 65.3238 36.866 65.3117 36.8482C65.2873 36.8124 65.2873 36.7897 65.2876 36.796C65.2881 36.8031 65.287 36.8259 65.274 36.8565C65.2617 36.8854 65.2425 36.9125 65.2165 36.9345L66.77 38.7639Z" fill="#0F3CAE" mask="url(#path-3-inside-1_1247_474)"/>
</g>
<defs>
<filter id="filter0_d_1247_474" x="0.727272" y="0.636363" width="114.545" height="114.545" filterUnits="userSpaceOnUse" color-interpolation-filters="sRGB">
<feFlood flood-opacity="0" result="BackgroundImageFix"/>
<feColorMatrix in="SourceAlpha" type="matrix" values="0 0 0 0 0 0 0 0 0 0 0 0 0 0 0 0 0 0 127 0" result="hardAlpha"/>
<feOffset dy="10.9091"/>
<feGaussianBlur stdDeviation="13.6364"/>
<feComposite in2="hardAlpha" operator="out"/>
<feColorMatrix type="matrix" values="0 0 0 0 1 0 0 0 0 1 0 0 0 0 1 0 0 0 0.12 0"/>
<feBlend mode="normal" in2="BackgroundImageFix" result="effect1_dropShadow_1247_474"/>
<feBlend mode="normal" in="SourceGraphic" in2="effect1_dropShadow_1247_474" result="shape"/>
</filter>
<linearGradient id="paint0_linear_1247_474" x1="28" y1="19.9126" x2="95.8325" y2="75.9785" gradientUnits="userSpaceOnUse">
<stop stop-color="#0033AD"/>
<stop offset="0.37" stop-color="white"/>
<stop offset="1" stop-color="#0F3CAE" stop-opacity="0"/>
</linearGradient>
</defs>
</svg>
