<svg width="121" height="151" viewBox="0 0 121 151" fill="none" xmlns="http://www.w3.org/2000/svg">
<mask id="path-1-inside-1_552_199" fill="white">
<path fill-rule="evenodd" clip-rule="evenodd" d="M41.8374 31.45C37.1335 32.8966 35.2939 35.7679 36.3558 40.7287C37.5149 46.1571 39.0555 51.5343 40.8204 56.8166C41.304 58.2702 42.1388 59.4693 43.1849 60.368C46.798 64.2566 50.5927 68.0135 54.588 71.5092C58.4543 74.8919 61.9168 74.7677 65.5513 71.5092C69.549 68.0183 73.3459 64.2528 76.961 60.361C78.004 59.4631 78.8366 58.2666 79.3189 56.8168C81.0763 51.5418 82.6169 46.1573 83.776 40.7362C84.8379 35.7754 82.9983 32.9041 78.2944 31.4575C72.9655 29.7438 67.4828 28.3665 61.984 27.2192C61.3583 27.0713 60.703 26.9952 60.0287 27.0002C59.3786 27.0015 58.7469 27.0781 58.1431 27.2216C52.6484 28.3683 47.1698 29.7448 41.8374 31.45Z"/>
</mask>
<path d="M36.3558 40.7287L40.2676 39.8934L40.2672 39.8914L36.3558 40.7287ZM41.8374 31.45L43.0132 35.2733L43.0345 35.2667L43.0558 35.2599L41.8374 31.45ZM40.8204 56.8166L44.6158 55.5538L44.6142 55.549L40.8204 56.8166ZM43.1849 60.368L46.1152 57.6453L45.9621 57.4805L45.7915 57.334L43.1849 60.368ZM54.588 71.5092L51.9541 74.5196L51.9542 74.5196L54.588 71.5092ZM65.5513 71.5092L62.9203 68.4962L62.9006 68.5135L62.8811 68.5309L65.5513 71.5092ZM76.961 60.361L74.3513 57.3296L74.1822 57.4752L74.0303 57.6387L76.961 60.361ZM79.3189 56.8168L75.524 55.5525L75.5235 55.554L79.3189 56.8168ZM83.776 40.7362L79.8646 39.8989L79.8644 39.8998L83.776 40.7362ZM78.2944 31.4575L77.0698 35.2654L77.0942 35.2733L77.1186 35.2808L78.2944 31.4575ZM61.984 27.2192L61.0633 31.1118L61.115 31.1241L61.167 31.1349L61.984 27.2192ZM60.0287 27.0002L60.0367 31.0002L60.0476 31.0002L60.0585 31.0001L60.0287 27.0002ZM58.1431 27.2216L58.9603 31.1372L59.0144 31.1259L59.0681 31.1132L58.1431 27.2216ZM40.2672 39.8914C39.8599 37.9886 40.1546 37.1777 40.3605 36.836C40.5779 36.4752 41.1791 35.8373 43.0132 35.2733L40.6616 27.6267C37.7919 28.5092 35.1213 30.0303 33.5084 32.707C31.884 35.4028 31.7898 38.5079 32.4444 41.566L40.2672 39.8914ZM44.6142 55.549C42.8853 50.3744 41.3888 45.1442 40.2676 39.8934L32.444 41.564C33.6411 47.17 35.2257 52.6942 37.0265 58.0842L44.6142 55.549ZM45.7915 57.334C45.2881 56.9014 44.8681 56.312 44.6158 55.5538L37.0249 58.0794C37.74 60.2285 38.9896 62.0372 40.5782 63.402L45.7915 57.334ZM57.222 68.4988C53.3494 65.1106 49.6535 61.4534 46.1152 57.6453L40.2546 63.0907C43.9424 67.0598 47.836 70.9165 51.9541 74.5196L57.222 68.4988ZM62.8811 68.5309C61.4854 69.7822 60.6096 69.9956 60.1222 69.9998C59.6382 70.004 58.7194 69.809 57.2219 68.4988L51.9542 74.5196C54.323 76.5922 57.0685 78.0264 60.191 77.9995C63.31 77.9727 65.9827 76.4947 68.2215 74.4875L62.8811 68.5309ZM74.0303 57.6387C70.4884 61.4517 66.7917 65.1157 62.9203 68.4962L68.1823 74.5222C72.3064 70.9209 76.2035 67.0538 79.8917 63.0833L74.0303 57.6387ZM75.5235 55.554C75.2724 56.3087 74.854 56.8969 74.3513 57.3296L79.5707 63.3924C81.1541 62.0293 82.4008 60.2244 83.1144 58.0796L75.5235 55.554ZM79.8644 39.8998C78.7429 45.145 77.246 50.3839 75.524 55.5525L83.1139 58.0811C84.9067 52.6998 86.4908 47.1696 87.6876 41.5726L79.8644 39.8998ZM77.1186 35.2808C78.9528 35.8449 79.5539 36.4827 79.7713 36.8435C79.9772 37.1852 80.2719 37.9961 79.8646 39.8989L87.6874 41.5735C88.342 38.5155 88.2478 35.4103 86.6235 32.7145C85.0105 30.0379 82.3399 28.5168 79.4702 27.6342L77.1186 35.2808ZM61.167 31.1349C66.5626 32.2606 71.9046 33.6044 77.0698 35.2654L79.519 27.6496C74.0264 25.8833 68.403 24.4723 62.8009 23.3036L61.167 31.1349ZM60.0585 31.0001C60.4121 30.9975 60.7483 31.0373 61.0633 31.1118L62.9046 23.3266C61.9684 23.1052 60.994 22.9929 59.9989 23.0003L60.0585 31.0001ZM59.0681 31.1132C59.372 31.0409 59.696 31.0009 60.0367 31.0002L60.0207 23.0002C59.0612 23.0022 58.1219 23.1152 57.2182 23.33L59.0681 31.1132ZM43.0558 35.2599C48.2285 33.6058 53.5691 32.2623 58.9603 31.1372L57.3259 23.3059C51.7278 24.4743 46.1111 25.8838 40.6191 27.64L43.0558 35.2599Z" fill="#3C92F9" mask="url(#path-1-inside-1_552_199)"/>
<circle cx="60" cy="47" r="45" stroke="#323E59" stroke-width="4" stroke-linecap="round"/>
<path d="M15 85.0142C6.8698 87.3327 2 90.2852 2 93.5002C2 100.956 28.1913 107 60.5 107C92.8087 107 119 100.956 119 93.5002C119 90.2852 114.13 87.3327 106 85.0142" stroke="#323E59" stroke-width="4" stroke-linecap="round"/>
<path d="M119 114C119 121.456 92.8087 127.5 60.5 127.5C28.1913 127.5 2 121.456 2 114" stroke="#323E59" stroke-width="4" stroke-linecap="round"/>
<path d="M119 135C119 142.456 92.8087 148.5 60.5 148.5C28.1913 148.5 2 142.456 2 135" stroke="#323E59" stroke-width="4" stroke-linecap="round"/>
</svg>
