<svg width="48" height="48" viewBox="0 0 48 48" fill="none" xmlns="http://www.w3.org/2000/svg">
<mask id="path-1-inside-1_552_117" fill="white">
<path fill-rule="evenodd" clip-rule="evenodd" d="M14.6927 14.017C12.2907 14.7556 11.3513 16.2218 11.8936 18.755C12.4855 21.527 13.2721 24.2728 14.1734 26.9701C14.4203 27.7122 14.8464 28.3244 15.3804 28.7833C17.2255 30.7691 19.1633 32.6877 21.2036 34.4728C23.1779 36.2001 24.946 36.1367 26.8019 34.4728C28.8433 32.6903 30.7821 30.7674 32.6281 28.7802C33.1607 28.3217 33.5859 27.7106 33.8322 26.9703C34.7296 24.2767 35.5163 21.5271 36.1082 18.7589C36.6504 16.2257 35.711 14.7596 33.309 14.0209C30.5886 13.146 27.7897 12.4429 24.9826 11.8571C24.6587 11.7803 24.3192 11.7413 23.9697 11.7449C23.6429 11.7464 23.3252 11.7852 23.0214 11.8573C20.2148 12.4429 17.4164 13.146 14.6927 14.017Z"/>
</mask>
<path d="M11.8936 18.755L15.8054 17.9197L15.805 17.9177L11.8936 18.755ZM14.6927 14.017L15.8685 17.8402L15.8898 17.8337L15.9111 17.8269L14.6927 14.017ZM14.1734 26.9701L17.9688 25.7073L17.9672 25.7025L14.1734 26.9701ZM15.3804 28.7833L18.3107 26.0606L18.1578 25.896L17.9874 25.7496L15.3804 28.7833ZM21.2036 34.4728L18.5697 37.4832L18.5698 37.4832L21.2036 34.4728ZM26.8019 34.4728L24.1709 31.4598L24.1512 31.4771L24.1317 31.4945L26.8019 34.4728ZM32.6281 28.7802L30.0185 25.7487L29.8493 25.8943L29.6974 26.0579L32.6281 28.7802ZM33.8322 26.9703L30.0373 25.706L30.0368 25.7075L33.8322 26.9703ZM36.1082 18.7589L32.1968 17.9216L32.1966 17.9225L36.1082 18.7589ZM33.309 14.0209L32.0845 17.8288L32.1088 17.8366L32.1333 17.8442L33.309 14.0209ZM24.9826 11.8571L24.0597 15.7492L24.1125 15.7617L24.1656 15.7728L24.9826 11.8571ZM23.9697 11.7449L23.9891 15.7448L23.9999 15.7448L24.0108 15.7446L23.9697 11.7449ZM23.0214 11.8573L23.8385 15.7729L23.8914 15.7619L23.9441 15.7494L23.0214 11.8573ZM15.805 17.9177C15.7699 17.7538 15.7544 17.6336 15.7482 17.5522C15.7421 17.4712 15.7457 17.436 15.7455 17.4387C15.7451 17.4428 15.7406 17.4834 15.7195 17.5497C15.6979 17.6175 15.6639 17.6965 15.6151 17.7775C15.5664 17.8584 15.5141 17.9227 15.4686 17.9692C15.4243 18.0145 15.3962 18.0331 15.3992 18.0311C15.4033 18.0283 15.4382 18.0055 15.5164 17.9699C15.5948 17.9343 15.7094 17.8892 15.8685 17.8402L13.5169 10.1937C11.7982 10.7223 9.92806 11.7151 8.76299 13.6486C7.58645 15.6011 7.58742 17.7481 7.9822 19.5923L15.805 17.9177ZM17.9672 25.7025C17.102 23.1129 16.3594 20.5141 15.8054 17.9197L7.98178 19.5903C8.6116 22.5398 9.44234 25.4327 10.3795 28.2377L17.9672 25.7025ZM17.9874 25.7496C17.9889 25.7508 17.9888 25.7512 17.9871 25.7487C17.9861 25.7472 17.9839 25.7438 17.9809 25.7377C17.978 25.7317 17.9737 25.7219 17.9688 25.7073L10.3779 28.2329C10.8562 29.6703 11.697 30.892 12.7733 31.817L17.9874 25.7496ZM23.8376 31.4624C21.9201 29.7847 20.0811 27.9659 18.3107 26.0606L12.4501 31.506C14.3699 33.5722 16.4066 35.5906 18.5697 37.4832L23.8376 31.4624ZM24.1317 31.4945C23.8854 31.7154 23.7519 31.7829 23.7342 31.7911C23.7289 31.7936 23.7542 31.7813 23.8076 31.7686C23.8624 31.7555 23.9327 31.7454 24.0127 31.7447C24.0927 31.744 24.1625 31.753 24.2159 31.7648C24.2679 31.7762 24.2907 31.7873 24.2814 31.7832C24.2558 31.7718 24.1072 31.6983 23.8375 31.4624L18.5698 37.4832C19.9926 38.7281 21.8415 39.7637 24.0816 39.7444C26.3182 39.7251 28.1226 38.661 29.4721 37.4511L24.1317 31.4945ZM29.6974 26.0579C27.9246 27.9664 26.0859 29.7876 24.1709 31.4598L29.4329 37.4858C31.6006 35.5929 33.6396 33.5685 35.5588 31.5025L29.6974 26.0579ZM30.0368 25.7075C30.0321 25.7217 30.0278 25.7312 30.025 25.737C30.0222 25.7428 30.0201 25.7461 30.0191 25.7476C30.0174 25.75 30.0173 25.7497 30.0185 25.7487L35.2377 31.8117C36.3107 30.888 37.1501 29.6686 37.6277 28.2331L30.0368 25.7075ZM32.1966 17.9225C31.6423 20.5148 30.8992 23.1188 30.0373 25.706L37.6271 28.2346C38.56 25.4346 39.3902 22.5394 40.0198 19.5953L32.1966 17.9225ZM32.1333 17.8442C32.2923 17.8931 32.4069 17.9382 32.4854 17.9738C32.5636 18.0094 32.5985 18.0322 32.6026 18.035C32.6056 18.037 32.5774 18.0184 32.5331 17.9731C32.4877 17.9266 32.4353 17.8623 32.3866 17.7814C32.3378 17.7004 32.3038 17.6214 32.2823 17.5536C32.2612 17.4873 32.2567 17.4467 32.2563 17.4426C32.256 17.4399 32.2597 17.4751 32.2535 17.5561C32.2474 17.6375 32.2319 17.7577 32.1968 17.9216L40.0196 19.5962C40.4143 17.752 40.4153 15.605 39.2388 13.6525C38.0737 11.719 36.2036 10.7262 34.4848 10.1976L32.1333 17.8442ZM24.1656 15.7728C26.8695 16.337 29.5277 17.0066 32.0845 17.8288L34.5336 10.2129C31.6496 9.28548 28.71 8.54873 25.7996 7.94146L24.1656 15.7728ZM24.0108 15.7446C24.0349 15.7444 24.0508 15.7471 24.0597 15.7492L25.9055 7.96505C25.2666 7.81354 24.6034 7.73814 23.9286 7.74507L24.0108 15.7446ZM23.9441 15.7494C23.9524 15.7474 23.967 15.7449 23.9891 15.7448L23.9504 7.7449C23.3188 7.74796 22.6981 7.82307 22.0987 7.96515L23.9441 15.7494ZM15.9111 17.8269C18.475 17.007 21.1354 16.337 23.8385 15.7729L22.2043 7.94162C19.2942 8.54888 16.3577 9.28498 13.4744 10.207L15.9111 17.8269Z" fill="#323E59" mask="url(#path-1-inside-1_552_117)"/>
<circle cx="24" cy="24" r="22" stroke="#3C92F9" stroke-width="4" stroke-linecap="round"/>
</svg>
