<svg width="121" height="151" viewBox="0 0 121 151" fill="none" xmlns="http://www.w3.org/2000/svg">
<mask id="path-1-inside-1_1247_247" fill="white">
<path fill-rule="evenodd" clip-rule="evenodd" d="M41.8373 31.45C37.1334 32.8966 35.2938 35.7679 36.3557 40.7287C37.5148 46.1571 39.0554 51.5343 40.8202 56.8166C41.3039 58.2702 42.1387 59.4693 43.1848 60.368C46.7979 64.2566 50.5926 68.0135 54.5879 71.5092C58.4542 74.8919 61.9167 74.7677 65.5512 71.5092C69.5489 68.0183 73.3458 64.2528 76.9609 60.361C78.0039 59.4631 78.8365 58.2666 79.3188 56.8168C81.0762 51.5418 82.6168 46.1573 83.7759 40.7362C84.8378 35.7754 82.9981 32.9041 78.2943 31.4575C72.9654 29.7438 67.4827 28.3665 61.9839 27.2192C61.3582 27.0713 60.7029 26.9952 60.0286 27.0002C59.3785 27.0015 58.7468 27.0781 58.143 27.2216C52.6483 28.3683 47.1697 29.7448 41.8373 31.45Z"/>
</mask>
<path d="M36.3557 40.7287L40.2675 39.8934L40.2671 39.8914L36.3557 40.7287ZM41.8373 31.45L43.0131 35.2733L43.0344 35.2667L43.0557 35.2599L41.8373 31.45ZM40.8202 56.8166L44.6157 55.5538L44.6141 55.549L40.8202 56.8166ZM43.1848 60.368L46.1151 57.6453L45.962 57.4805L45.7914 57.334L43.1848 60.368ZM54.5879 71.5092L51.954 74.5196L51.954 74.5196L54.5879 71.5092ZM65.5512 71.5092L62.9202 68.4962L62.9005 68.5135L62.881 68.5309L65.5512 71.5092ZM76.9609 60.361L74.3512 57.3296L74.1821 57.4752L74.0302 57.6387L76.9609 60.361ZM79.3188 56.8168L75.5239 55.5525L75.5234 55.554L79.3188 56.8168ZM83.7759 40.7362L79.8645 39.8989L79.8643 39.8998L83.7759 40.7362ZM78.2943 31.4575L77.0697 35.2654L77.094 35.2733L77.1185 35.2808L78.2943 31.4575ZM61.9839 27.2192L61.0632 31.1118L61.1149 31.1241L61.1669 31.1349L61.9839 27.2192ZM60.0286 27.0002L60.0366 31.0002L60.0475 31.0002L60.0584 31.0001L60.0286 27.0002ZM58.143 27.2216L58.9602 31.1372L59.0142 31.1259L59.068 31.1132L58.143 27.2216ZM40.2671 39.8914C39.8597 37.9886 40.1544 37.1777 40.3604 36.836C40.5778 36.4752 41.1789 35.8373 43.0131 35.2733L40.6615 27.6267C37.7918 28.5092 35.1212 30.0303 33.5082 32.707C31.8839 35.4028 31.7897 38.5079 32.4443 41.566L40.2671 39.8914ZM44.6141 55.549C42.8852 50.3744 41.3887 45.1442 40.2675 39.8934L32.4439 41.564C33.6409 47.17 35.2255 52.6942 37.0264 58.0842L44.6141 55.549ZM45.7914 57.334C45.2879 56.9014 44.8679 56.312 44.6157 55.5538L37.0248 58.0794C37.7398 60.2285 38.9895 62.0372 40.5781 63.402L45.7914 57.334ZM57.2218 68.4988C53.3493 65.1106 49.6534 61.4534 46.1151 57.6453L40.2544 63.0907C43.9423 67.0598 47.8359 70.9165 51.954 74.5196L57.2218 68.4988ZM62.881 68.5309C61.4853 69.7822 60.6095 69.9956 60.122 69.9998C59.6381 70.004 58.7193 69.809 57.2218 68.4988L51.954 74.5196C54.3228 76.5922 57.0684 78.0264 60.1909 77.9995C63.3099 77.9727 65.9826 76.4947 68.2214 74.4875L62.881 68.5309ZM74.0302 57.6387C70.4883 61.4517 66.7916 65.1157 62.9202 68.4962L68.1821 74.5222C72.3063 70.9209 76.2034 67.0538 79.8916 63.0833L74.0302 57.6387ZM75.5234 55.554C75.2723 56.3087 74.8538 56.8969 74.3512 57.3296L79.5706 63.3924C81.1539 62.0293 82.4006 60.2244 83.1142 58.0796L75.5234 55.554ZM79.8643 39.8998C78.7428 45.145 77.2458 50.3839 75.5239 55.5525L83.1137 58.0811C84.9066 52.6998 86.4907 47.1696 87.6875 41.5726L79.8643 39.8998ZM77.1185 35.2808C78.9526 35.8449 79.5538 36.4827 79.7712 36.8435C79.9771 37.1852 80.2718 37.9961 79.8645 39.8989L87.6873 41.5735C88.3419 38.5155 88.2477 35.4103 86.6233 32.7145C85.0104 30.0379 82.3398 28.5168 79.4701 27.6342L77.1185 35.2808ZM61.1669 31.1349C66.5625 32.2606 71.9044 33.6044 77.0697 35.2654L79.5188 27.6496C74.0263 25.8833 68.4028 24.4723 62.8008 23.3036L61.1669 31.1349ZM60.0584 31.0001C60.4119 30.9975 60.7481 31.0373 61.0632 31.1118L62.9045 23.3266C61.9682 23.1052 60.9939 22.9929 59.9988 23.0003L60.0584 31.0001ZM59.068 31.1132C59.3719 31.0409 59.6959 31.0009 60.0366 31.0002L60.0205 23.0002C59.0611 23.0022 58.1218 23.1152 57.218 23.33L59.068 31.1132ZM43.0557 35.2599C48.2284 33.6058 53.5689 32.2623 58.9602 31.1372L57.3258 23.3059C51.7276 24.4743 46.1109 25.8838 40.619 27.64L43.0557 35.2599Z" fill="#61EFFF" mask="url(#path-1-inside-1_1247_247)"/>
<circle cx="60" cy="47" r="45" stroke="white" stroke-width="4" stroke-linecap="round"/>
<path d="M15 85.0142C6.8698 87.3327 2 90.2852 2 93.5002C2 100.956 28.1913 107 60.5 107C92.8087 107 119 100.956 119 93.5002C119 90.2852 114.13 87.3327 106 85.0142" stroke="white" stroke-width="4" stroke-linecap="round"/>
<path d="M119 114C119 121.456 92.8087 127.5 60.5 127.5C28.1913 127.5 2 121.456 2 114" stroke="white" stroke-width="4" stroke-linecap="round"/>
<path d="M119 135C119 142.456 92.8087 148.5 60.5 148.5C28.1913 148.5 2 142.456 2 135" stroke="white" stroke-width="4" stroke-linecap="round"/>
</svg>
