<svg width="48" height="47" viewBox="0 0 48 47" fill="none" xmlns="http://www.w3.org/2000/svg">
<mask id="path-1-inside-1_552_78" fill="white">
<path fill-rule="evenodd" clip-rule="evenodd" d="M5.77334 4.44998C1.06946 5.89658 -0.770214 8.76786 0.291712 13.7287C1.45086 19.1571 2.99139 24.5343 4.75628 29.8166C5.23993 31.2702 6.07474 32.4693 7.12079 33.368C10.7339 37.2566 14.5286 41.0135 18.5239 44.5092C22.3903 47.8919 25.8527 47.7677 29.4872 44.5092C33.485 41.0183 37.2819 37.2528 40.8969 33.361C41.9399 32.4631 42.7725 31.2666 43.2548 29.8168C45.0122 24.5418 46.5528 19.1573 47.7119 13.7362C48.7739 8.77538 46.9342 5.9041 42.2303 4.45751C36.9014 2.74382 31.4187 1.36648 25.9199 0.219244C25.2942 0.0712637 24.6389 -0.00478712 23.9646 0.000233457C23.3145 0.001538 22.6828 0.0780594 22.079 0.221573C16.5843 1.3683 11.1057 2.74479 5.77334 4.44998Z"/>
</mask>
<path d="M0.291712 13.7287L4.20352 12.8934L4.2031 12.8914L0.291712 13.7287ZM5.77334 4.44998L6.94913 8.27327L6.97045 8.26671L6.99169 8.25992L5.77334 4.44998ZM4.75628 29.8166L8.55173 28.5538L8.55013 28.549L4.75628 29.8166ZM7.12079 33.368L10.0511 30.6453L9.89802 30.4805L9.72744 30.334L7.12079 33.368ZM18.5239 44.5092L15.89 47.5196L15.8901 47.5196L18.5239 44.5092ZM29.4872 44.5092L26.8562 41.4962L26.8365 41.5135L26.817 41.5309L29.4872 44.5092ZM40.8969 33.361L38.2872 30.3296L38.1181 30.4752L37.9662 30.6387L40.8969 33.361ZM43.2548 29.8168L39.4599 28.5525L39.4594 28.554L43.2548 29.8168ZM47.7119 13.7362L43.8005 12.8989L43.8004 12.8998L47.7119 13.7362ZM42.2303 4.45751L41.0057 8.26545L41.0301 8.27328L41.0545 8.28079L42.2303 4.45751ZM25.9199 0.219244L24.9992 4.11185L25.0509 4.12408L25.1029 4.13493L25.9199 0.219244ZM23.9646 0.000233457L23.9726 4.00023L23.9835 4.0002L23.9944 4.00012L23.9646 0.000233457ZM22.079 0.221573L22.8962 4.13721L22.9503 4.12593L23.004 4.11316L22.079 0.221573ZM4.2031 12.8914C3.79578 10.9886 4.09048 10.1777 4.29642 9.83597C4.51383 9.47516 5.11497 8.83733 6.94913 8.27327L4.59755 0.626695C1.72783 1.50923 -0.942809 3.03034 -2.55572 5.70702C-4.18011 8.40276 -4.27428 11.5079 -3.61968 14.566L4.2031 12.8914ZM8.55013 28.549C6.82121 23.3744 5.32475 18.1442 4.20352 12.8934L-3.6201 14.564C-2.42304 20.17 -0.838416 25.6942 0.962443 31.0842L8.55013 28.549ZM9.72744 30.334C9.22397 29.9014 8.80397 29.312 8.55173 28.5538L0.960842 31.0794C1.67588 33.2285 2.92551 35.0372 4.51414 36.402L9.72744 30.334ZM21.1579 41.4988C17.2853 38.1106 13.5894 34.4534 10.0511 30.6453L4.19048 36.0907C7.87834 40.0598 11.7719 43.9165 15.89 47.5196L21.1579 41.4988ZM26.817 41.5309C25.4213 42.7822 24.5455 42.9956 24.0581 42.9998C23.5742 43.004 22.6553 42.809 21.1578 41.4988L15.8901 47.5196C18.2589 49.5922 21.0044 51.0264 24.127 50.9995C27.246 50.9727 29.9186 49.4947 32.1574 47.4875L26.817 41.5309ZM37.9662 30.6387C34.4243 34.4517 30.7276 38.1157 26.8562 41.4962L32.1182 47.5222C36.2423 43.9209 40.1394 40.0538 43.8276 36.0833L37.9662 30.6387ZM39.4594 28.554C39.2083 29.3087 38.7899 29.8969 38.2872 30.3296L43.5066 36.3924C45.09 35.0293 46.3367 33.2244 47.0503 31.0796L39.4594 28.554ZM43.8004 12.8998C42.6788 18.145 41.1819 23.3839 39.4599 28.5525L47.0498 31.0811C48.8426 25.6998 50.4268 20.1696 51.6235 14.5726L43.8004 12.8998ZM41.0545 8.28079C42.8887 8.84486 43.4898 9.48269 43.7072 9.84349C43.9132 10.1852 44.2079 10.9961 43.8005 12.8989L51.6233 14.5735C52.2779 11.5155 52.1838 8.41028 50.5594 5.71455C48.9465 3.03786 46.2758 1.51675 43.4061 0.634218L41.0545 8.28079ZM25.1029 4.13493C30.4985 5.26063 35.8405 6.60439 41.0057 8.26545L43.4549 0.649562C37.9623 -1.11674 32.3389 -2.52766 26.7368 -3.69644L25.1029 4.13493ZM23.9944 4.00012C24.348 3.99749 24.6842 4.03734 24.9992 4.11185L26.8406 -3.67336C25.9043 -3.89481 24.9299 -4.00706 23.9348 -3.99966L23.9944 4.00012ZM23.004 4.11316C23.3079 4.04093 23.6319 4.00091 23.9726 4.00023L23.9566 -3.99976C22.9971 -3.99783 22.0578 -3.88481 21.1541 -3.67002L23.004 4.11316ZM6.99169 8.25992C12.1644 6.60578 17.505 5.26234 22.8962 4.13721L21.2619 -3.69406C15.6637 -2.52574 10.047 -1.11619 4.55499 0.640045L6.99169 8.25992Z" fill="#3C92F9" mask="url(#path-1-inside-1_552_78)"/>
<path d="M19 24.8966L21.8205 28L30 19" stroke="#323E59" stroke-width="4" stroke-linecap="round" stroke-linejoin="round"/>
</svg>
